<?xml version="1.0" encoding="UTF-8"?><svg xmlns="http://www.w3.org/2000/svg" xmlns:xlink="http://www.w3.org/1999/xlink" fill-opacity="1" color-rendering="auto" color-interpolation="auto" text-rendering="auto" stroke="black" stroke-linecap="square" width="700" stroke-miterlimit="10" shape-rendering="auto" stroke-opacity="1" fill="black" stroke-dasharray="none" font-weight="normal" stroke-width="1" height="616" font-family="'Dialog'" font-style="normal" stroke-linejoin="miter" font-size="12px" stroke-dashoffset="0" image-rendering="auto">
  <!--Generated by ySVG 2.6-->
  <defs id="genericDefs"/>
  <g>
    <defs id="defs1">
      <clipPath clipPathUnits="userSpaceOnUse" id="clipPath1">
        <path d="M0 0 L700 0 L700 616 L0 616 L0 0 Z"/>
      </clipPath>
      <clipPath clipPathUnits="userSpaceOnUse" id="clipPath2">
        <path d="M552 397 L902 397 L902 705 L552 705 L552 397 Z"/>
      </clipPath>
    </defs>
    <g fill="white" text-rendering="geometricPrecision" shape-rendering="geometricPrecision" transform="scale(2,2) translate(-552,-397)" stroke="white">
      <rect x="552" width="350" height="308" y="397" clip-path="url(#clipPath2)" stroke="none"/>
    </g>
    <g fill="rgb(51,153,102)" text-rendering="geometricPrecision" shape-rendering="geometricPrecision" transform="matrix(2,0,0,2,-1104,-794)" stroke="rgb(51,153,102)">
      <circle r="15" clip-path="url(#clipPath2)" cx="666" cy="521" stroke="none"/>
    </g>
    <g text-rendering="geometricPrecision" stroke-miterlimit="1.45" shape-rendering="geometricPrecision" transform="matrix(2,0,0,2,-1104,-794)" stroke-linecap="butt">
      <circle fill="none" r="15" clip-path="url(#clipPath2)" cx="666" cy="521"/>
    </g>
    <g fill="rgb(51,153,102)" text-rendering="geometricPrecision" shape-rendering="geometricPrecision" transform="matrix(2,0,0,2,-1104,-794)" stroke="rgb(51,153,102)">
      <circle r="15" clip-path="url(#clipPath2)" cx="878.2" cy="506.72" stroke="none"/>
    </g>
    <g text-rendering="geometricPrecision" stroke-miterlimit="1.45" shape-rendering="geometricPrecision" transform="matrix(2,0,0,2,-1104,-794)" stroke-linecap="butt">
      <circle fill="none" r="15" clip-path="url(#clipPath2)" cx="878.2" cy="506.72"/>
    </g>
    <g fill="rgb(51,153,102)" text-rendering="geometricPrecision" shape-rendering="geometricPrecision" transform="matrix(2,0,0,2,-1104,-794)" stroke="rgb(51,153,102)">
      <circle r="15" clip-path="url(#clipPath2)" cx="641.64" cy="681.56" stroke="none"/>
    </g>
    <g text-rendering="geometricPrecision" stroke-miterlimit="1.45" shape-rendering="geometricPrecision" transform="matrix(2,0,0,2,-1104,-794)" stroke-linecap="butt">
      <circle fill="none" r="15" clip-path="url(#clipPath2)" cx="641.64" cy="681.56"/>
    </g>
    <g fill="rgb(51,153,102)" text-rendering="geometricPrecision" shape-rendering="geometricPrecision" transform="matrix(2,0,0,2,-1104,-794)" stroke="rgb(51,153,102)">
      <circle r="15" clip-path="url(#clipPath2)" cx="772.1" cy="561.96" stroke="none"/>
    </g>
    <g text-rendering="geometricPrecision" stroke-miterlimit="1.45" shape-rendering="geometricPrecision" transform="matrix(2,0,0,2,-1104,-794)" stroke-linecap="butt">
      <circle fill="none" r="15" clip-path="url(#clipPath2)" cx="772.1" cy="561.96"/>
    </g>
    <g fill="rgb(51,153,102)" text-rendering="geometricPrecision" shape-rendering="geometricPrecision" transform="matrix(2,0,0,2,-1104,-794)" stroke="rgb(51,153,102)">
      <circle r="15" clip-path="url(#clipPath2)" cx="702.44" cy="420.52" stroke="none"/>
    </g>
    <g text-rendering="geometricPrecision" stroke-miterlimit="1.45" shape-rendering="geometricPrecision" transform="matrix(2,0,0,2,-1104,-794)" stroke-linecap="butt">
      <circle fill="none" r="15" clip-path="url(#clipPath2)" cx="702.44" cy="420.52"/>
    </g>
    <g fill="rgb(51,153,102)" text-rendering="geometricPrecision" shape-rendering="geometricPrecision" transform="matrix(2,0,0,2,-1104,-794)" stroke="rgb(51,153,102)">
      <circle r="15" clip-path="url(#clipPath2)" cx="785" cy="448.4" stroke="none"/>
    </g>
    <g text-rendering="geometricPrecision" stroke-miterlimit="1.45" shape-rendering="geometricPrecision" transform="matrix(2,0,0,2,-1104,-794)" stroke-linecap="butt">
      <circle fill="none" r="15" clip-path="url(#clipPath2)" cx="785" cy="448.4"/>
    </g>
    <g fill="rgb(51,153,102)" text-rendering="geometricPrecision" shape-rendering="geometricPrecision" transform="matrix(2,0,0,2,-1104,-794)" stroke="rgb(51,153,102)">
      <circle r="15" clip-path="url(#clipPath2)" cx="606" cy="590.84" stroke="none"/>
    </g>
    <g text-rendering="geometricPrecision" stroke-miterlimit="1.45" shape-rendering="geometricPrecision" transform="matrix(2,0,0,2,-1104,-794)" stroke-linecap="butt">
      <circle fill="none" r="15" clip-path="url(#clipPath2)" cx="606" cy="590.84"/>
    </g>
    <g fill="rgb(51,153,102)" text-rendering="geometricPrecision" shape-rendering="geometricPrecision" transform="matrix(2,0,0,2,-1104,-794)" stroke="rgb(51,153,102)">
      <circle r="15" clip-path="url(#clipPath2)" cx="575.36" cy="498.44" stroke="none"/>
    </g>
    <g text-rendering="geometricPrecision" stroke-miterlimit="1.45" shape-rendering="geometricPrecision" transform="matrix(2,0,0,2,-1104,-794)" stroke-linecap="butt">
      <circle fill="none" r="15" clip-path="url(#clipPath2)" cx="575.36" cy="498.44"/>
    </g>
    <g fill="rgb(51,153,102)" text-rendering="geometricPrecision" shape-rendering="geometricPrecision" transform="matrix(2,0,0,2,-1104,-794)" stroke="rgb(51,153,102)">
      <circle r="15" clip-path="url(#clipPath2)" cx="696.12" cy="608.12" stroke="none"/>
    </g>
    <g text-rendering="geometricPrecision" stroke-miterlimit="1.45" shape-rendering="geometricPrecision" transform="matrix(2,0,0,2,-1104,-794)" stroke-linecap="butt">
      <circle fill="none" r="15" clip-path="url(#clipPath2)" cx="696.12" cy="608.12"/>
      <path fill="none" d="M785.4048 555.033 L856.9124 517.8032" stroke-width="2" clip-path="url(#clipPath2)" stroke="red"/>
      <path fill="red" d="M864.8952 513.647 L850.3233 514.8921 L855.9145 518.3228 L855.5186 524.8707 Z" stroke-width="2" clip-path="url(#clipPath2)" stroke="none"/>
      <path fill="none" d="M671.114 506.8987 L694.2576 443.0821" stroke-width="2" clip-path="url(#clipPath2)"/>
      <path d="M697.326 434.6213 L687.4354 445.3947 L693.8741 444.1397 L698.0114 449.2303 Z" stroke-width="2" clip-path="url(#clipPath2)" stroke="none"/>
      <path fill="none" d="M773.793 547.0558 L782.2911 472.2466" stroke-width="2" clip-path="url(#clipPath2)"/>
      <path d="M783.3069 463.3041 L776.1942 476.083 L782.1642 473.3644 L787.3723 477.3528 Z" stroke-width="2" clip-path="url(#clipPath2)" stroke="none"/>
      <path fill="none" d="M770.7885 443.6009 L725.1785 428.1986" stroke-width="2" clip-path="url(#clipPath2)" stroke="red"/>
      <path fill="red" d="M716.6516 425.3192 L727.6423 434.9677 L726.2443 428.5586 L731.2416 424.3091 Z" stroke-width="2" clip-path="url(#clipPath2)" stroke="none"/>
      <path fill="none" d="M656.2253 532.3778 L621.6396 572.6355" stroke-width="2" clip-path="url(#clipPath2)"/>
      <path d="M615.7747 579.4622 L628.8387 572.8876 L622.3727 571.7821 L620.3053 565.5566 Z" stroke-width="2" clip-path="url(#clipPath2)" stroke="none"/>
      <path fill="none" d="M611.4848 604.8013 L632.8643 659.222" stroke-width="2" clip-path="url(#clipPath2)" stroke="red"/>
      <path fill="red" d="M636.1552 667.5988 L636.4543 652.9768 L632.4529 658.1749 L625.9834 657.0905 Z" stroke-width="2" clip-path="url(#clipPath2)" stroke="none"/>
      <path fill="none" d="M651.4441 517.3771 L598.6495 504.2367" stroke-width="2" clip-path="url(#clipPath2)" stroke="red"/>
      <path fill="red" d="M589.916 502.0629 L601.6577 510.782 L599.7412 504.5084 L604.3749 499.8651 Z" stroke-width="2" clip-path="url(#clipPath2)" stroke="none"/>
      <path fill="none" d="M670.9013 535.1766 L688.278 585.4374" stroke-width="2" clip-path="url(#clipPath2)"/>
      <path d="M691.2187 593.9434 L692.1238 579.3464 L687.9103 584.3741 L681.4913 583.0223 Z" stroke-width="2" clip-path="url(#clipPath2)" stroke="none"/>
      <path fill="none" d="M708.9396 600.3317 L751.5886 574.4213" stroke-width="2" clip-path="url(#clipPath2)"/>
      <path d="M759.2804 569.7483 L744.8221 571.9504 L750.6271 575.0054 L750.6633 581.5651 Z" stroke-width="2" clip-path="url(#clipPath2)" stroke="none"/>
    </g>
  </g>
</svg>
