<?xml version="1.0" encoding="UTF-8"?><svg xmlns="http://www.w3.org/2000/svg" xmlns:xlink="http://www.w3.org/1999/xlink" fill-opacity="1" color-rendering="auto" color-interpolation="auto" text-rendering="auto" stroke="black" stroke-linecap="square" width="1022" stroke-miterlimit="10" shape-rendering="auto" stroke-opacity="1" fill="black" stroke-dasharray="none" font-weight="normal" stroke-width="1" height="622" font-family="'Dialog'" font-style="normal" stroke-linejoin="miter" font-size="12px" stroke-dashoffset="0" image-rendering="auto">
  <!--Generated by ySVG 2.6-->
  <defs id="genericDefs"/>
  <g>
    <defs id="defs1">
      <clipPath clipPathUnits="userSpaceOnUse" id="clipPath1">
        <path d="M0 0 L1022 0 L1022 622 L0 622 L0 0 Z"/>
      </clipPath>
      <clipPath clipPathUnits="userSpaceOnUse" id="clipPath2">
        <path d="M134 465 L645 465 L645 776 L134 776 L134 465 Z"/>
      </clipPath>
    </defs>
    <g fill="white" text-rendering="geometricPrecision" shape-rendering="geometricPrecision" transform="scale(2,2) translate(-134,-465)" stroke="white">
      <rect x="134" width="511" height="311" y="465" clip-path="url(#clipPath2)" stroke="none"/>
    </g>
    <g fill="rgb(230,226,226)" text-rendering="geometricPrecision" shape-rendering="geometricPrecision" transform="matrix(2,0,0,2,-268,-930)" stroke="rgb(230,226,226)">
      <rect x="142.3574" y="683.76" clip-path="url(#clipPath2)" width="494.0613" rx="4" ry="4" height="83.76" stroke="none"/>
    </g>
    <g text-rendering="geometricPrecision" stroke-miterlimit="1.45" shape-rendering="geometricPrecision" transform="matrix(2,0,0,2,-268,-930)" stroke-linecap="butt">
      <rect x="142.3574" y="683.76" clip-path="url(#clipPath2)" fill="none" width="494.0613" rx="4" ry="4" height="83.76"/>
    </g>
    <g fill="rgb(230,226,226)" text-rendering="geometricPrecision" shape-rendering="geometricPrecision" transform="matrix(2,0,0,2,-268,-930)" stroke="rgb(230,226,226)">
      <rect x="142.4187" width="494" height="204.72" y="473.672" clip-path="url(#clipPath2)" stroke="none"/>
    </g>
    <g text-rendering="geometricPrecision" stroke-miterlimit="1.45" shape-rendering="geometricPrecision" transform="matrix(2,0,0,2,-268,-930)" stroke-linecap="butt">
      <rect fill="none" x="142.4187" width="494" height="204.72" y="473.672" clip-path="url(#clipPath2)"/>
    </g>
    <g fill="rgb(255,102,0)" text-rendering="geometricPrecision" shape-rendering="geometricPrecision" transform="matrix(2,0,0,2,-268,-930)" stroke="rgb(255,102,0)">
      <circle r="15" clip-path="url(#clipPath2)" cx="233" cy="504.5" stroke="none"/>
    </g>
    <g text-rendering="geometricPrecision" stroke-miterlimit="1.45" shape-rendering="geometricPrecision" transform="matrix(2,0,0,2,-268,-930)" stroke-linecap="butt">
      <circle fill="none" r="15" clip-path="url(#clipPath2)" cx="233" cy="504.5"/>
    </g>
    <g fill="rgb(51,102,255)" text-rendering="geometricPrecision" shape-rendering="geometricPrecision" transform="matrix(2,0,0,2,-268,-930)" stroke="rgb(51,102,255)">
      <circle r="15" clip-path="url(#clipPath2)" cx="354" cy="645" stroke="none"/>
    </g>
    <g text-rendering="geometricPrecision" stroke-miterlimit="1.45" shape-rendering="geometricPrecision" transform="matrix(2,0,0,2,-268,-930)" stroke-linecap="butt">
      <circle fill="none" r="15" clip-path="url(#clipPath2)" cx="354" cy="645"/>
    </g>
    <g fill="rgb(51,102,255)" text-rendering="geometricPrecision" shape-rendering="geometricPrecision" transform="matrix(2,0,0,2,-268,-930)" stroke="rgb(51,102,255)">
      <circle r="15" clip-path="url(#clipPath2)" cx="173" cy="564.5" stroke="none"/>
    </g>
    <g text-rendering="geometricPrecision" stroke-miterlimit="1.45" shape-rendering="geometricPrecision" transform="matrix(2,0,0,2,-268,-930)" stroke-linecap="butt">
      <circle fill="none" r="15" clip-path="url(#clipPath2)" cx="173" cy="564.5"/>
    </g>
    <g fill="rgb(255,102,0)" text-rendering="geometricPrecision" shape-rendering="geometricPrecision" transform="matrix(2,0,0,2,-268,-930)" stroke="rgb(255,102,0)">
      <circle r="15" clip-path="url(#clipPath2)" cx="214" cy="641" stroke="none"/>
    </g>
    <g text-rendering="geometricPrecision" stroke-miterlimit="1.45" shape-rendering="geometricPrecision" transform="matrix(2,0,0,2,-268,-930)" stroke-linecap="butt">
      <circle fill="none" r="15" clip-path="url(#clipPath2)" cx="214" cy="641"/>
    </g>
    <g fill="rgb(255,102,0)" text-rendering="geometricPrecision" shape-rendering="geometricPrecision" transform="matrix(2,0,0,2,-268,-930)" stroke="rgb(255,102,0)">
      <circle r="15" clip-path="url(#clipPath2)" cx="294" cy="600" stroke="none"/>
    </g>
    <g text-rendering="geometricPrecision" stroke-miterlimit="1.45" shape-rendering="geometricPrecision" transform="matrix(2,0,0,2,-268,-930)" stroke-linecap="butt">
      <circle fill="none" r="15" clip-path="url(#clipPath2)" cx="294" cy="600"/>
    </g>
    <g fill="rgb(51,102,255)" text-rendering="geometricPrecision" shape-rendering="geometricPrecision" transform="matrix(2,0,0,2,-268,-930)" stroke="rgb(51,102,255)">
      <circle r="15" clip-path="url(#clipPath2)" cx="256" cy="551" stroke="none"/>
    </g>
    <g text-rendering="geometricPrecision" stroke-miterlimit="1.45" shape-rendering="geometricPrecision" transform="matrix(2,0,0,2,-268,-930)" stroke-linecap="butt">
      <circle fill="none" r="15" clip-path="url(#clipPath2)" cx="256" cy="551"/>
    </g>
    <g fill="rgb(255,102,0)" text-rendering="geometricPrecision" shape-rendering="geometricPrecision" transform="matrix(2,0,0,2,-268,-930)" stroke="rgb(255,102,0)">
      <circle r="15" clip-path="url(#clipPath2)" cx="478.984" cy="504.5" stroke="none"/>
    </g>
    <g text-rendering="geometricPrecision" stroke-miterlimit="1.45" shape-rendering="geometricPrecision" transform="matrix(2,0,0,2,-268,-930)" stroke-linecap="butt">
      <circle fill="none" r="15" clip-path="url(#clipPath2)" cx="478.984" cy="504.5"/>
    </g>
    <g fill="rgb(51,102,255)" text-rendering="geometricPrecision" shape-rendering="geometricPrecision" transform="matrix(2,0,0,2,-268,-930)" stroke="rgb(51,102,255)">
      <circle r="15" clip-path="url(#clipPath2)" cx="596.184" cy="645" stroke="none"/>
    </g>
    <g text-rendering="geometricPrecision" stroke-miterlimit="1.45" shape-rendering="geometricPrecision" transform="matrix(2,0,0,2,-268,-930)" stroke-linecap="butt">
      <circle fill="none" r="15" clip-path="url(#clipPath2)" cx="596.184" cy="645"/>
    </g>
    <g fill="rgb(51,102,255)" text-rendering="geometricPrecision" shape-rendering="geometricPrecision" transform="matrix(2,0,0,2,-268,-930)" stroke="rgb(51,102,255)">
      <circle r="15" clip-path="url(#clipPath2)" cx="418.984" cy="564.5" stroke="none"/>
    </g>
    <g text-rendering="geometricPrecision" stroke-miterlimit="1.45" shape-rendering="geometricPrecision" transform="matrix(2,0,0,2,-268,-930)" stroke-linecap="butt">
      <circle fill="none" r="15" clip-path="url(#clipPath2)" cx="418.984" cy="564.5"/>
    </g>
    <g fill="rgb(255,102,0)" text-rendering="geometricPrecision" shape-rendering="geometricPrecision" transform="matrix(2,0,0,2,-268,-930)" stroke="rgb(255,102,0)">
      <circle r="15" clip-path="url(#clipPath2)" cx="459.984" cy="641" stroke="none"/>
    </g>
    <g text-rendering="geometricPrecision" stroke-miterlimit="1.45" shape-rendering="geometricPrecision" transform="matrix(2,0,0,2,-268,-930)" stroke-linecap="butt">
      <circle fill="none" r="15" clip-path="url(#clipPath2)" cx="459.984" cy="641"/>
    </g>
    <g fill="rgb(255,102,0)" text-rendering="geometricPrecision" shape-rendering="geometricPrecision" transform="matrix(2,0,0,2,-268,-930)" stroke="rgb(255,102,0)">
      <circle r="15" clip-path="url(#clipPath2)" cx="539.984" cy="600" stroke="none"/>
    </g>
    <g text-rendering="geometricPrecision" stroke-miterlimit="1.45" shape-rendering="geometricPrecision" transform="matrix(2,0,0,2,-268,-930)" stroke-linecap="butt">
      <circle fill="none" r="15" clip-path="url(#clipPath2)" cx="539.984" cy="600"/>
    </g>
    <g fill="rgb(51,102,255)" text-rendering="geometricPrecision" shape-rendering="geometricPrecision" transform="matrix(2,0,0,2,-268,-930)" stroke="rgb(51,102,255)">
      <circle r="15" clip-path="url(#clipPath2)" cx="501.984" cy="551" stroke="none"/>
    </g>
    <g text-rendering="geometricPrecision" stroke-miterlimit="1.45" shape-rendering="geometricPrecision" transform="matrix(2,0,0,2,-268,-930)" stroke-linecap="butt">
      <circle fill="none" r="15" clip-path="url(#clipPath2)" cx="501.984" cy="551"/>
    </g>
    <g fill="rgb(255,102,0)" text-rendering="geometricPrecision" shape-rendering="geometricPrecision" transform="matrix(2,0,0,2,-268,-930)" stroke="rgb(255,102,0)">
      <circle r="15" clip-path="url(#clipPath2)" cx="168.5787" cy="744.52" stroke="none"/>
    </g>
    <g text-rendering="geometricPrecision" stroke-miterlimit="1.45" shape-rendering="geometricPrecision" transform="matrix(2,0,0,2,-268,-930)" stroke-linecap="butt">
      <circle fill="none" r="15" clip-path="url(#clipPath2)" cx="168.5787" cy="744.52"/>
    </g>
    <g fill="rgb(51,102,255)" text-rendering="geometricPrecision" shape-rendering="geometricPrecision" transform="matrix(2,0,0,2,-268,-930)" stroke="rgb(51,102,255)">
      <circle r="15" clip-path="url(#clipPath2)" cx="168.5787" cy="706.836" stroke="none"/>
    </g>
    <g text-rendering="geometricPrecision" stroke-miterlimit="1.45" shape-rendering="geometricPrecision" transform="matrix(2,0,0,2,-268,-930)" stroke-linecap="butt">
      <circle fill="none" r="15" clip-path="url(#clipPath2)" cx="168.5787" cy="706.836"/>
    </g>
    <g fill="rgb(51,102,255)" text-rendering="geometricPrecision" shape-rendering="geometricPrecision" transform="matrix(2,0,0,2,-268,-930)" stroke="rgb(51,102,255)">
      <circle r="15" clip-path="url(#clipPath2)" cx="352.9387" cy="706.836" stroke="none"/>
    </g>
    <g text-rendering="geometricPrecision" stroke-miterlimit="1.45" shape-rendering="geometricPrecision" transform="matrix(2,0,0,2,-268,-930)" stroke-linecap="butt">
      <circle fill="none" r="15" clip-path="url(#clipPath2)" cx="352.9387" cy="706.836"/>
    </g>
    <g fill="rgb(51,102,255)" text-rendering="geometricPrecision" shape-rendering="geometricPrecision" transform="matrix(2,0,0,2,-268,-930)" stroke="rgb(51,102,255)">
      <circle r="15" clip-path="url(#clipPath2)" cx="352.9387" cy="744.52" stroke="none"/>
    </g>
    <g text-rendering="geometricPrecision" stroke-miterlimit="1.45" shape-rendering="geometricPrecision" transform="matrix(2,0,0,2,-268,-930)" stroke-linecap="butt">
      <circle fill="none" r="15" clip-path="url(#clipPath2)" cx="352.9387" cy="744.52"/>
    </g>
    <g fill="rgb(255,102,0)" text-rendering="geometricPrecision" shape-rendering="geometricPrecision" transform="matrix(2,0,0,2,-268,-930)" stroke="rgb(255,102,0)">
      <circle r="15" clip-path="url(#clipPath2)" cx="412.9387" cy="744.52" stroke="none"/>
    </g>
    <g text-rendering="geometricPrecision" stroke-miterlimit="1.45" shape-rendering="geometricPrecision" transform="matrix(2,0,0,2,-268,-930)" stroke-linecap="butt">
      <circle fill="none" r="15" clip-path="url(#clipPath2)" cx="412.9387" cy="744.52"/>
    </g>
    <g fill="rgb(255,102,0)" text-rendering="geometricPrecision" shape-rendering="geometricPrecision" transform="matrix(2,0,0,2,-268,-930)" stroke="rgb(255,102,0)">
      <circle r="15" clip-path="url(#clipPath2)" cx="412.9387" cy="706.836" stroke="none"/>
    </g>
    <g text-rendering="geometricPrecision" stroke-miterlimit="1.45" shape-rendering="geometricPrecision" transform="matrix(2,0,0,2,-268,-930)" stroke-linecap="butt">
      <circle fill="none" r="15" clip-path="url(#clipPath2)" cx="412.9387" cy="706.836"/>
      <path fill="none" d="M339.0061 644.5716 L236.9906 641.6569" clip-path="url(#clipPath2)"/>
      <path d="M228.9939 641.4284 L240.8462 646.769 L237.9902 641.6854 L241.1318 636.7731 Z" clip-path="url(#clipPath2)" stroke="none"/>
      <path fill="none" d="M187.3933 568.7228 L271.9302 593.525" clip-path="url(#clipPath2)"/>
      <path d="M279.6067 595.7772 L269.4996 587.6011 L270.9707 593.2435 L266.6844 597.1967 Z" clip-path="url(#clipPath2)" stroke="none"/>
      <path fill="none" d="M249.3497 537.5548 L243.1971 525.116" clip-path="url(#clipPath2)"/>
      <path d="M239.6503 517.9452 L240.4888 530.9181 L243.6405 526.0123 L249.4523 526.4846 Z" clip-path="url(#clipPath2)" stroke="none"/>
      <path fill="none" d="M592.0889 630.5579 L589.3544 620.9141 L580.2903 598.6919 L568.9919 578.3337 L555.4591 559.8392 L539.692 543.2087 L521.6904 528.4419 L501.4544 515.5391 L494.4769 512.1113" stroke-width="2" clip-path="url(#clipPath2)"/>
      <path d="M491.9966 517.1599 L496.9572 507.0626 Z" stroke-width="2" clip-path="url(#clipPath2)" stroke="none"/>
      <path fill="none" stroke-miterlimit="10" d="M491.9966 517.1599 L496.9572 507.0626 Z" clip-path="url(#clipPath2)" stroke-linecap="square"/>
      <path fill="none" d="M426.8644 551.6968 L430.414 545.93 L444.224 529.74 L460.414 515.93 L464.2647 513.5598" stroke-width="2" clip-path="url(#clipPath2)"/>
      <path d="M461.3163 508.7695 L467.2132 518.3502 Z" stroke-width="2" clip-path="url(#clipPath2)" stroke="none"/>
      <path fill="none" stroke-miterlimit="10" d="M461.3163 508.7695 L467.2132 518.3502 Z" clip-path="url(#clipPath2)" stroke-linecap="square"/>
      <path fill="none" d="M420.3515 579.394 L421.8467 587.5842 L425.1249 598.1365 L429.6343 608.0289 L435.3749 617.2615 L442.3467 625.8342 L446.7194 630.0522" stroke-width="2" clip-path="url(#clipPath2)"/>
      <path d="M450.6246 626.0037 L442.8142 634.1006 Z" stroke-width="2" clip-path="url(#clipPath2)" stroke="none"/>
      <path fill="none" stroke-miterlimit="10" d="M450.6246 626.0037 L442.8142 634.1006 Z" clip-path="url(#clipPath2)" stroke-linecap="square"/>
      <path fill="none" d="M584.749 635.2649 L568.7614 621.654 L553.7818 610.3824" stroke-width="2" clip-path="url(#clipPath2)"/>
      <path d="M550.3997 614.877 L557.1639 605.8878 Z" stroke-width="2" clip-path="url(#clipPath2)" stroke="none"/>
      <path fill="none" stroke-miterlimit="10" d="M550.3997 614.877 L557.1639 605.8878 Z" clip-path="url(#clipPath2)" stroke-linecap="square"/>
      <path fill="none" d="M512.7812 561.4395 L513.243 561.8859 L523.3293 573.6812 L531.3185 585.0682 L531.3679 585.1551" stroke-width="2" clip-path="url(#clipPath2)"/>
      <path d="M536.0485 582.0354 L526.6873 588.2748 Z" stroke-width="2" clip-path="url(#clipPath2)" stroke="none"/>
      <path fill="none" stroke-miterlimit="10" d="M536.0485 582.0354 L526.6873 588.2748 Z" clip-path="url(#clipPath2)" stroke-linecap="square"/>
      <path fill="none" d="M493.1045 563.0715 L486.9797 571.398 L474.9783 593.1973 L465.9797 616.398 L464.065 624.2546" stroke-width="2" clip-path="url(#clipPath2)"/>
      <path d="M469.5301 625.5864 L458.5999 622.9227 Z" stroke-width="2" clip-path="url(#clipPath2)" stroke="none"/>
      <path fill="none" stroke-miterlimit="10" d="M469.5301 625.5864 L458.5999 622.9227 Z" clip-path="url(#clipPath2)" stroke-linecap="square"/>
      <path fill="none" d="M367.9387 744.52 L395.6887 744.52" stroke-width="2" clip-path="url(#clipPath2)"/>
      <path d="M395.6887 738.895 L395.6887 750.145 Z" stroke-width="2" clip-path="url(#clipPath2)" stroke="none"/>
      <path fill="none" stroke-miterlimit="10" d="M395.6887 738.895 L395.6887 750.145 Z" clip-path="url(#clipPath2)" stroke-linecap="square"/>
      <path fill="none" d="M367.9387 706.836 L389.9387 706.836" clip-path="url(#clipPath2)"/>
      <path d="M397.9387 706.836 L385.9387 701.836 L388.9387 706.836 L385.9387 711.836 Z" clip-path="url(#clipPath2)" stroke="none"/>
    </g>
  </g>
</svg>
