<?xml version="1.0" encoding="UTF-8"?><svg xmlns="http://www.w3.org/2000/svg" xmlns:xlink="http://www.w3.org/1999/xlink" fill-opacity="1" color-rendering="auto" color-interpolation="auto" text-rendering="auto" stroke="black" stroke-linecap="square" width="1146" stroke-miterlimit="10" shape-rendering="auto" stroke-opacity="1" fill="black" stroke-dasharray="none" font-weight="normal" stroke-width="1" height="700" font-family="'Dialog'" font-style="normal" stroke-linejoin="miter" font-size="12px" stroke-dashoffset="0" image-rendering="auto">
  <!--Generated by ySVG 2.6-->
  <defs id="genericDefs"/>
  <g>
    <defs id="defs1">
      <clipPath clipPathUnits="userSpaceOnUse" id="clipPath1">
        <path d="M0 0 L1146 0 L1146 700 L0 700 L0 0 Z"/>
      </clipPath>
      <clipPath clipPathUnits="userSpaceOnUse" id="clipPath2">
        <path d="M-281 466 L292 466 L292 816 L-281 816 L-281 466 Z"/>
      </clipPath>
    </defs>
    <g fill="white" text-rendering="geometricPrecision" shape-rendering="geometricPrecision" transform="scale(2,2) translate(281,-466)" stroke="white">
      <rect x="-281" width="573" height="350" y="466" clip-path="url(#clipPath2)" stroke="none"/>
    </g>
    <g fill="rgb(245,245,245)" text-rendering="geometricPrecision" shape-rendering="geometricPrecision" transform="matrix(2,0,0,2,562,-932)" stroke="rgb(245,245,245)">
      <rect x="-272.8817" y="474.9645" clip-path="url(#clipPath2)" width="511" rx="4" ry="4" height="255.1809" stroke="none"/>
      <rect x="-272.8817" y="474.9645" clip-path="url(#clipPath2)" fill="rgb(235,235,235)" width="511" height="21.4609" stroke="none"/>
    </g>
    <g font-size="15px" stroke-linecap="butt" transform="matrix(2,0,0,2,562,-932)" text-rendering="geometricPrecision" font-family="sans-serif" shape-rendering="geometricPrecision" stroke-miterlimit="1.45">
      <text x="133.462" xml:space="preserve" y="490.8878" clip-path="url(#clipPath2)" stroke="none">Experiment N</text>
      <rect x="-272.8817" y="474.9645" clip-path="url(#clipPath2)" fill="none" width="511" stroke-dasharray="6,2" rx="4" ry="4" height="255.1809"/>
    </g>
    <g fill="rgb(230,226,226)" text-rendering="geometricPrecision" shape-rendering="geometricPrecision" transform="matrix(2,0,0,2,562,-932)" stroke="rgb(230,226,226)">
      <rect x="-257.8817" width="481" height="203.72" y="511.4254" clip-path="url(#clipPath2)" stroke="none"/>
    </g>
    <g text-rendering="geometricPrecision" stroke-miterlimit="1.45" shape-rendering="geometricPrecision" transform="matrix(2,0,0,2,562,-932)" stroke-linecap="butt">
      <rect fill="none" x="-257.8817" width="481" height="203.72" y="511.4254" clip-path="url(#clipPath2)"/>
    </g>
    <g fill="rgb(255,102,0)" text-rendering="geometricPrecision" shape-rendering="geometricPrecision" transform="matrix(2,0,0,2,562,-932)" stroke="rgb(255,102,0)">
      <circle r="15" clip-path="url(#clipPath2)" cx="-166.2232" cy="537.7854" stroke="none"/>
    </g>
    <g text-rendering="geometricPrecision" stroke-miterlimit="1.45" shape-rendering="geometricPrecision" transform="matrix(2,0,0,2,562,-932)" stroke-linecap="butt">
      <circle fill="none" r="15" clip-path="url(#clipPath2)" cx="-166.2232" cy="537.7854"/>
    </g>
    <g fill="rgb(51,102,255)" text-rendering="geometricPrecision" shape-rendering="geometricPrecision" transform="matrix(2,0,0,2,562,-932)" stroke="rgb(51,102,255)">
      <circle r="15" clip-path="url(#clipPath2)" cx="-45.2232" cy="678.2854" stroke="none"/>
    </g>
    <g text-rendering="geometricPrecision" stroke-miterlimit="1.45" shape-rendering="geometricPrecision" transform="matrix(2,0,0,2,562,-932)" stroke-linecap="butt">
      <circle fill="none" r="15" clip-path="url(#clipPath2)" cx="-45.2232" cy="678.2854"/>
    </g>
    <g fill="rgb(51,102,255)" text-rendering="geometricPrecision" shape-rendering="geometricPrecision" transform="matrix(2,0,0,2,562,-932)" stroke="rgb(51,102,255)">
      <circle r="15" clip-path="url(#clipPath2)" cx="-226.2232" cy="597.7854" stroke="none"/>
    </g>
    <g text-rendering="geometricPrecision" stroke-miterlimit="1.45" shape-rendering="geometricPrecision" transform="matrix(2,0,0,2,562,-932)" stroke-linecap="butt">
      <circle fill="none" r="15" clip-path="url(#clipPath2)" cx="-226.2232" cy="597.7854"/>
    </g>
    <g fill="rgb(255,102,0)" text-rendering="geometricPrecision" shape-rendering="geometricPrecision" transform="matrix(2,0,0,2,562,-932)" stroke="rgb(255,102,0)">
      <circle r="15" clip-path="url(#clipPath2)" cx="-185.2232" cy="674.2854" stroke="none"/>
    </g>
    <g text-rendering="geometricPrecision" stroke-miterlimit="1.45" shape-rendering="geometricPrecision" transform="matrix(2,0,0,2,562,-932)" stroke-linecap="butt">
      <circle fill="none" r="15" clip-path="url(#clipPath2)" cx="-185.2232" cy="674.2854"/>
    </g>
    <g fill="rgb(255,102,0)" text-rendering="geometricPrecision" shape-rendering="geometricPrecision" transform="matrix(2,0,0,2,562,-932)" stroke="rgb(255,102,0)">
      <circle r="15" clip-path="url(#clipPath2)" cx="-105.2232" cy="633.2854" stroke="none"/>
    </g>
    <g text-rendering="geometricPrecision" stroke-miterlimit="1.45" shape-rendering="geometricPrecision" transform="matrix(2,0,0,2,562,-932)" stroke-linecap="butt">
      <circle fill="none" r="15" clip-path="url(#clipPath2)" cx="-105.2232" cy="633.2854"/>
    </g>
    <g fill="rgb(51,102,255)" text-rendering="geometricPrecision" shape-rendering="geometricPrecision" transform="matrix(2,0,0,2,562,-932)" stroke="rgb(51,102,255)">
      <circle r="15" clip-path="url(#clipPath2)" cx="-143.2232" cy="584.2854" stroke="none"/>
    </g>
    <g text-rendering="geometricPrecision" stroke-miterlimit="1.45" shape-rendering="geometricPrecision" transform="matrix(2,0,0,2,562,-932)" stroke-linecap="butt">
      <circle fill="none" r="15" clip-path="url(#clipPath2)" cx="-143.2232" cy="584.2854"/>
    </g>
    <g fill="rgb(255,102,0)" text-rendering="geometricPrecision" shape-rendering="geometricPrecision" transform="matrix(2,0,0,2,562,-932)" stroke="rgb(255,102,0)">
      <circle r="15" clip-path="url(#clipPath2)" cx="82.5768" cy="537.7854" stroke="none"/>
    </g>
    <g text-rendering="geometricPrecision" stroke-miterlimit="1.45" shape-rendering="geometricPrecision" transform="matrix(2,0,0,2,562,-932)" stroke-linecap="butt">
      <circle fill="none" r="15" clip-path="url(#clipPath2)" cx="82.5768" cy="537.7854"/>
    </g>
    <g fill="rgb(51,102,255)" text-rendering="geometricPrecision" shape-rendering="geometricPrecision" transform="matrix(2,0,0,2,562,-932)" stroke="rgb(51,102,255)">
      <circle r="15" clip-path="url(#clipPath2)" cx="199.7768" cy="678.2854" stroke="none"/>
    </g>
    <g text-rendering="geometricPrecision" stroke-miterlimit="1.45" shape-rendering="geometricPrecision" transform="matrix(2,0,0,2,562,-932)" stroke-linecap="butt">
      <circle fill="none" r="15" clip-path="url(#clipPath2)" cx="199.7768" cy="678.2854"/>
    </g>
    <g fill="rgb(51,102,255)" text-rendering="geometricPrecision" shape-rendering="geometricPrecision" transform="matrix(2,0,0,2,562,-932)" stroke="rgb(51,102,255)">
      <circle r="15" clip-path="url(#clipPath2)" cx="22.5768" cy="597.7854" stroke="none"/>
    </g>
    <g text-rendering="geometricPrecision" stroke-miterlimit="1.45" shape-rendering="geometricPrecision" transform="matrix(2,0,0,2,562,-932)" stroke-linecap="butt">
      <circle fill="none" r="15" clip-path="url(#clipPath2)" cx="22.5768" cy="597.7854"/>
    </g>
    <g fill="rgb(255,102,0)" text-rendering="geometricPrecision" shape-rendering="geometricPrecision" transform="matrix(2,0,0,2,562,-932)" stroke="rgb(255,102,0)">
      <circle r="15" clip-path="url(#clipPath2)" cx="63.5768" cy="674.2854" stroke="none"/>
    </g>
    <g text-rendering="geometricPrecision" stroke-miterlimit="1.45" shape-rendering="geometricPrecision" transform="matrix(2,0,0,2,562,-932)" stroke-linecap="butt">
      <circle fill="none" r="15" clip-path="url(#clipPath2)" cx="63.5768" cy="674.2854"/>
    </g>
    <g fill="rgb(255,102,0)" text-rendering="geometricPrecision" shape-rendering="geometricPrecision" transform="matrix(2,0,0,2,562,-932)" stroke="rgb(255,102,0)">
      <circle r="15" clip-path="url(#clipPath2)" cx="143.5768" cy="633.2854" stroke="none"/>
    </g>
    <g text-rendering="geometricPrecision" stroke-miterlimit="1.45" shape-rendering="geometricPrecision" transform="matrix(2,0,0,2,562,-932)" stroke-linecap="butt">
      <circle fill="none" r="15" clip-path="url(#clipPath2)" cx="143.5768" cy="633.2854"/>
    </g>
    <g fill="rgb(51,102,255)" text-rendering="geometricPrecision" shape-rendering="geometricPrecision" transform="matrix(2,0,0,2,562,-932)" stroke="rgb(51,102,255)">
      <circle r="15" clip-path="url(#clipPath2)" cx="105.5768" cy="584.2854" stroke="none"/>
    </g>
    <g text-rendering="geometricPrecision" stroke-miterlimit="1.45" shape-rendering="geometricPrecision" transform="matrix(2,0,0,2,562,-932)" stroke-linecap="butt">
      <circle fill="none" r="15" clip-path="url(#clipPath2)" cx="105.5768" cy="584.2854"/>
      <path fill="none" d="M-60.217 677.8571 L-162.2325 674.9423" clip-path="url(#clipPath2)"/>
      <path d="M-170.2293 674.7139 L-158.377 680.0545 L-161.233 674.9709 L-158.0914 670.0586 Z" clip-path="url(#clipPath2)" stroke="none"/>
      <path fill="none" d="M-211.8298 602.0083 L-127.2929 626.8104" clip-path="url(#clipPath2)"/>
      <path d="M-119.6165 629.0626 L-129.7235 620.8865 L-128.2525 626.5289 L-132.5388 630.4821 Z" clip-path="url(#clipPath2)" stroke="none"/>
      <path fill="none" d="M-149.8735 570.8403 L-156.026 558.4014" clip-path="url(#clipPath2)"/>
      <path d="M-159.5728 551.2307 L-158.7343 564.2036 L-155.5827 559.2978 L-149.7709 559.77 Z" clip-path="url(#clipPath2)" stroke="none"/>
      <path fill="none" d="M195.6817 663.8433 L192.9472 654.1995 L183.8832 631.9774 L172.5848 611.6191 L159.052 593.1247 L143.2848 576.4941 L125.2832 561.7274 L105.0472 548.8245 L98.0698 545.3967" stroke-width="2" clip-path="url(#clipPath2)"/>
      <path d="M95.5894 550.4454 L100.5501 540.3481 Z" stroke-width="2" clip-path="url(#clipPath2)" stroke="none"/>
      <path fill="none" stroke-miterlimit="10" d="M95.5894 550.4454 L100.5501 540.3481 Z" clip-path="url(#clipPath2)" stroke-linecap="square"/>
      <path fill="none" d="M30.4573 584.9823 L34.0068 579.2155 L47.8168 563.0255 L64.0068 549.2155 L67.8576 546.8453" stroke-width="2" clip-path="url(#clipPath2)"/>
      <path d="M64.9091 542.0549 L70.806 551.6356 Z" stroke-width="2" clip-path="url(#clipPath2)" stroke="none"/>
      <path fill="none" stroke-miterlimit="10" d="M64.9091 542.0549 L70.806 551.6356 Z" clip-path="url(#clipPath2)" stroke-linecap="square"/>
      <path fill="none" d="M23.9443 612.6795 L25.4396 620.8696 L28.7177 631.4219 L33.2271 641.3144 L38.9677 650.5469 L45.9396 659.1196 L50.3123 663.3376" stroke-width="2" clip-path="url(#clipPath2)"/>
      <path d="M54.2175 659.2892 L46.407 667.3861 Z" stroke-width="2" clip-path="url(#clipPath2)" stroke="none"/>
      <path fill="none" stroke-miterlimit="10" d="M54.2175 659.2892 L46.407 667.3861 Z" clip-path="url(#clipPath2)" stroke-linecap="square"/>
      <path fill="none" d="M188.3418 668.5504 L172.3543 654.9395 L157.3747 643.6678" stroke-width="2" clip-path="url(#clipPath2)"/>
      <path d="M153.9926 648.1625 L160.7568 639.1732 Z" stroke-width="2" clip-path="url(#clipPath2)" stroke="none"/>
      <path fill="none" stroke-miterlimit="10" d="M153.9926 648.1625 L160.7568 639.1732 Z" clip-path="url(#clipPath2)" stroke-linecap="square"/>
      <path fill="none" d="M116.374 594.7249 L116.8358 595.1714 L126.9221 606.9667 L134.9113 618.3536 L134.9607 618.4406" stroke-width="2" clip-path="url(#clipPath2)"/>
      <path d="M139.6413 615.3208 L130.2802 621.5604 Z" stroke-width="2" clip-path="url(#clipPath2)" stroke="none"/>
      <path fill="none" stroke-miterlimit="10" d="M139.6413 615.3208 L130.2802 621.5604 Z" clip-path="url(#clipPath2)" stroke-linecap="square"/>
      <path fill="none" d="M96.6974 596.3569 L90.5726 604.6835 L78.5712 626.4828 L69.5726 649.6835 L67.6578 657.54" stroke-width="2" clip-path="url(#clipPath2)"/>
      <path d="M73.1229 658.8719 L62.1928 656.2082 Z" stroke-width="2" clip-path="url(#clipPath2)" stroke="none"/>
      <path fill="none" stroke-miterlimit="10" d="M73.1229 658.8719 L62.1928 656.2082 Z" clip-path="url(#clipPath2)" stroke-linecap="square"/>
    </g>
    <g fill="rgb(245,245,245)" text-rendering="geometricPrecision" shape-rendering="geometricPrecision" transform="matrix(2,0,0,2,562,-932)" stroke="rgb(245,245,245)">
      <rect x="-257.8817" y="500.8245" clip-path="url(#clipPath2)" width="511" rx="4" ry="4" height="255.1809" stroke="none"/>
      <rect x="-257.8817" y="500.8245" clip-path="url(#clipPath2)" fill="rgb(235,235,235)" width="511" height="21.4609" stroke="none"/>
    </g>
    <g font-size="15px" stroke-linecap="butt" transform="matrix(2,0,0,2,562,-932)" text-rendering="geometricPrecision" font-family="sans-serif" shape-rendering="geometricPrecision" stroke-miterlimit="1.45">
      <text x="150.1393" xml:space="preserve" y="516.7479" clip-path="url(#clipPath2)" stroke="none">Experiment 3</text>
      <rect x="-257.8817" y="500.8245" clip-path="url(#clipPath2)" fill="none" width="511" stroke-dasharray="6,2" rx="4" ry="4" height="255.1809"/>
    </g>
    <g fill="rgb(230,226,226)" text-rendering="geometricPrecision" shape-rendering="geometricPrecision" transform="matrix(2,0,0,2,562,-932)" stroke="rgb(230,226,226)">
      <rect x="-242.8817" width="481" height="203.72" y="537.2854" clip-path="url(#clipPath2)" stroke="none"/>
    </g>
    <g text-rendering="geometricPrecision" stroke-miterlimit="1.45" shape-rendering="geometricPrecision" transform="matrix(2,0,0,2,562,-932)" stroke-linecap="butt">
      <rect fill="none" x="-242.8817" width="481" height="203.72" y="537.2854" clip-path="url(#clipPath2)"/>
    </g>
    <g fill="rgb(255,102,0)" text-rendering="geometricPrecision" shape-rendering="geometricPrecision" transform="matrix(2,0,0,2,562,-932)" stroke="rgb(255,102,0)">
      <circle r="15" clip-path="url(#clipPath2)" cx="-151.2232" cy="563.6454" stroke="none"/>
    </g>
    <g text-rendering="geometricPrecision" stroke-miterlimit="1.45" shape-rendering="geometricPrecision" transform="matrix(2,0,0,2,562,-932)" stroke-linecap="butt">
      <circle fill="none" r="15" clip-path="url(#clipPath2)" cx="-151.2232" cy="563.6454"/>
    </g>
    <g fill="rgb(51,102,255)" text-rendering="geometricPrecision" shape-rendering="geometricPrecision" transform="matrix(2,0,0,2,562,-932)" stroke="rgb(51,102,255)">
      <circle r="15" clip-path="url(#clipPath2)" cx="-30.2232" cy="704.1454" stroke="none"/>
    </g>
    <g text-rendering="geometricPrecision" stroke-miterlimit="1.45" shape-rendering="geometricPrecision" transform="matrix(2,0,0,2,562,-932)" stroke-linecap="butt">
      <circle fill="none" r="15" clip-path="url(#clipPath2)" cx="-30.2232" cy="704.1454"/>
    </g>
    <g fill="rgb(51,102,255)" text-rendering="geometricPrecision" shape-rendering="geometricPrecision" transform="matrix(2,0,0,2,562,-932)" stroke="rgb(51,102,255)">
      <circle r="15" clip-path="url(#clipPath2)" cx="-211.2232" cy="623.6454" stroke="none"/>
    </g>
    <g text-rendering="geometricPrecision" stroke-miterlimit="1.45" shape-rendering="geometricPrecision" transform="matrix(2,0,0,2,562,-932)" stroke-linecap="butt">
      <circle fill="none" r="15" clip-path="url(#clipPath2)" cx="-211.2232" cy="623.6454"/>
    </g>
    <g fill="rgb(255,102,0)" text-rendering="geometricPrecision" shape-rendering="geometricPrecision" transform="matrix(2,0,0,2,562,-932)" stroke="rgb(255,102,0)">
      <circle r="15" clip-path="url(#clipPath2)" cx="-170.2232" cy="700.1454" stroke="none"/>
    </g>
    <g text-rendering="geometricPrecision" stroke-miterlimit="1.45" shape-rendering="geometricPrecision" transform="matrix(2,0,0,2,562,-932)" stroke-linecap="butt">
      <circle fill="none" r="15" clip-path="url(#clipPath2)" cx="-170.2232" cy="700.1454"/>
    </g>
    <g fill="rgb(255,102,0)" text-rendering="geometricPrecision" shape-rendering="geometricPrecision" transform="matrix(2,0,0,2,562,-932)" stroke="rgb(255,102,0)">
      <circle r="15" clip-path="url(#clipPath2)" cx="-90.2232" cy="659.1454" stroke="none"/>
    </g>
    <g text-rendering="geometricPrecision" stroke-miterlimit="1.45" shape-rendering="geometricPrecision" transform="matrix(2,0,0,2,562,-932)" stroke-linecap="butt">
      <circle fill="none" r="15" clip-path="url(#clipPath2)" cx="-90.2232" cy="659.1454"/>
    </g>
    <g fill="rgb(51,102,255)" text-rendering="geometricPrecision" shape-rendering="geometricPrecision" transform="matrix(2,0,0,2,562,-932)" stroke="rgb(51,102,255)">
      <circle r="15" clip-path="url(#clipPath2)" cx="-128.2232" cy="610.1454" stroke="none"/>
    </g>
    <g text-rendering="geometricPrecision" stroke-miterlimit="1.45" shape-rendering="geometricPrecision" transform="matrix(2,0,0,2,562,-932)" stroke-linecap="butt">
      <circle fill="none" r="15" clip-path="url(#clipPath2)" cx="-128.2232" cy="610.1454"/>
    </g>
    <g fill="rgb(255,102,0)" text-rendering="geometricPrecision" shape-rendering="geometricPrecision" transform="matrix(2,0,0,2,562,-932)" stroke="rgb(255,102,0)">
      <circle r="15" clip-path="url(#clipPath2)" cx="97.5768" cy="563.6454" stroke="none"/>
    </g>
    <g text-rendering="geometricPrecision" stroke-miterlimit="1.45" shape-rendering="geometricPrecision" transform="matrix(2,0,0,2,562,-932)" stroke-linecap="butt">
      <circle fill="none" r="15" clip-path="url(#clipPath2)" cx="97.5768" cy="563.6454"/>
    </g>
    <g fill="rgb(51,102,255)" text-rendering="geometricPrecision" shape-rendering="geometricPrecision" transform="matrix(2,0,0,2,562,-932)" stroke="rgb(51,102,255)">
      <circle r="15" clip-path="url(#clipPath2)" cx="214.7768" cy="704.1454" stroke="none"/>
    </g>
    <g text-rendering="geometricPrecision" stroke-miterlimit="1.45" shape-rendering="geometricPrecision" transform="matrix(2,0,0,2,562,-932)" stroke-linecap="butt">
      <circle fill="none" r="15" clip-path="url(#clipPath2)" cx="214.7768" cy="704.1454"/>
    </g>
    <g fill="rgb(51,102,255)" text-rendering="geometricPrecision" shape-rendering="geometricPrecision" transform="matrix(2,0,0,2,562,-932)" stroke="rgb(51,102,255)">
      <circle r="15" clip-path="url(#clipPath2)" cx="37.5768" cy="623.6454" stroke="none"/>
    </g>
    <g text-rendering="geometricPrecision" stroke-miterlimit="1.45" shape-rendering="geometricPrecision" transform="matrix(2,0,0,2,562,-932)" stroke-linecap="butt">
      <circle fill="none" r="15" clip-path="url(#clipPath2)" cx="37.5768" cy="623.6454"/>
    </g>
    <g fill="rgb(255,102,0)" text-rendering="geometricPrecision" shape-rendering="geometricPrecision" transform="matrix(2,0,0,2,562,-932)" stroke="rgb(255,102,0)">
      <circle r="15" clip-path="url(#clipPath2)" cx="78.5768" cy="700.1454" stroke="none"/>
    </g>
    <g text-rendering="geometricPrecision" stroke-miterlimit="1.45" shape-rendering="geometricPrecision" transform="matrix(2,0,0,2,562,-932)" stroke-linecap="butt">
      <circle fill="none" r="15" clip-path="url(#clipPath2)" cx="78.5768" cy="700.1454"/>
    </g>
    <g fill="rgb(255,102,0)" text-rendering="geometricPrecision" shape-rendering="geometricPrecision" transform="matrix(2,0,0,2,562,-932)" stroke="rgb(255,102,0)">
      <circle r="15" clip-path="url(#clipPath2)" cx="158.5768" cy="659.1454" stroke="none"/>
    </g>
    <g text-rendering="geometricPrecision" stroke-miterlimit="1.45" shape-rendering="geometricPrecision" transform="matrix(2,0,0,2,562,-932)" stroke-linecap="butt">
      <circle fill="none" r="15" clip-path="url(#clipPath2)" cx="158.5768" cy="659.1454"/>
    </g>
    <g fill="rgb(51,102,255)" text-rendering="geometricPrecision" shape-rendering="geometricPrecision" transform="matrix(2,0,0,2,562,-932)" stroke="rgb(51,102,255)">
      <circle r="15" clip-path="url(#clipPath2)" cx="120.5768" cy="610.1454" stroke="none"/>
    </g>
    <g text-rendering="geometricPrecision" stroke-miterlimit="1.45" shape-rendering="geometricPrecision" transform="matrix(2,0,0,2,562,-932)" stroke-linecap="butt">
      <circle fill="none" r="15" clip-path="url(#clipPath2)" cx="120.5768" cy="610.1454"/>
      <path fill="none" d="M-45.217 703.717 L-147.2325 700.8023" clip-path="url(#clipPath2)"/>
      <path d="M-155.2293 700.5739 L-143.377 705.9145 L-146.233 700.8309 L-143.0914 695.9186 Z" clip-path="url(#clipPath2)" stroke="none"/>
      <path fill="none" d="M-196.8298 627.8683 L-112.2929 652.6704" clip-path="url(#clipPath2)"/>
      <path d="M-104.6165 654.9226 L-114.7235 646.7465 L-113.2525 652.3889 L-117.5388 656.3421 Z" clip-path="url(#clipPath2)" stroke="none"/>
      <path fill="none" d="M-134.8735 596.7003 L-141.026 584.2614" clip-path="url(#clipPath2)"/>
      <path d="M-144.5728 577.0906 L-143.7343 590.0635 L-140.5827 585.1578 L-134.7709 585.63 Z" clip-path="url(#clipPath2)" stroke="none"/>
      <path fill="none" d="M210.6817 689.7033 L207.9472 680.0595 L198.8832 657.8374 L187.5848 637.4791 L174.052 618.9847 L158.2848 602.3541 L140.2832 587.5874 L120.0472 574.6845 L113.0698 571.2567" stroke-width="2" clip-path="url(#clipPath2)"/>
      <path d="M110.5894 576.3054 L115.5501 566.2081 Z" stroke-width="2" clip-path="url(#clipPath2)" stroke="none"/>
      <path fill="none" stroke-miterlimit="10" d="M110.5894 576.3054 L115.5501 566.2081 Z" clip-path="url(#clipPath2)" stroke-linecap="square"/>
      <path fill="none" d="M45.4573 610.8423 L49.0068 605.0754 L62.8168 588.8854 L79.0068 575.0754 L82.8576 572.7053" stroke-width="2" clip-path="url(#clipPath2)"/>
      <path d="M79.9091 567.9149 L85.806 577.4956 Z" stroke-width="2" clip-path="url(#clipPath2)" stroke="none"/>
      <path fill="none" stroke-miterlimit="10" d="M79.9091 567.9149 L85.806 577.4956 Z" clip-path="url(#clipPath2)" stroke-linecap="square"/>
      <path fill="none" d="M38.9443 638.5395 L40.4396 646.7296 L43.7178 657.2819 L48.2271 667.1744 L53.9678 676.4069 L60.9396 684.9796 L65.3122 689.1976" stroke-width="2" clip-path="url(#clipPath2)"/>
      <path d="M69.2174 685.1492 L61.407 693.2461 Z" stroke-width="2" clip-path="url(#clipPath2)" stroke="none"/>
      <path fill="none" stroke-miterlimit="10" d="M69.2174 685.1492 L61.407 693.2461 Z" clip-path="url(#clipPath2)" stroke-linecap="square"/>
      <path fill="none" d="M203.3418 694.4103 L187.3543 680.7994 L172.3747 669.5278" stroke-width="2" clip-path="url(#clipPath2)"/>
      <path d="M168.9926 674.0225 L175.7568 665.0331 Z" stroke-width="2" clip-path="url(#clipPath2)" stroke="none"/>
      <path fill="none" stroke-miterlimit="10" d="M168.9926 674.0225 L175.7568 665.0331 Z" clip-path="url(#clipPath2)" stroke-linecap="square"/>
      <path fill="none" d="M131.374 620.5849 L131.8358 621.0314 L141.9221 632.8267 L149.9113 644.2136 L149.9607 644.3005" stroke-width="2" clip-path="url(#clipPath2)"/>
      <path d="M154.6413 641.1808 L145.2802 647.4203 Z" stroke-width="2" clip-path="url(#clipPath2)" stroke="none"/>
      <path fill="none" stroke-miterlimit="10" d="M154.6413 641.1808 L145.2802 647.4203 Z" clip-path="url(#clipPath2)" stroke-linecap="square"/>
      <path fill="none" d="M111.6974 622.2169 L105.5726 630.5435 L93.5712 652.3428 L84.5726 675.5435 L82.6579 683.4" stroke-width="2" clip-path="url(#clipPath2)"/>
      <path d="M88.1229 684.7319 L77.1928 682.0682 Z" stroke-width="2" clip-path="url(#clipPath2)" stroke="none"/>
      <path fill="none" stroke-miterlimit="10" d="M88.1229 684.7319 L77.1928 682.0682 Z" clip-path="url(#clipPath2)" stroke-linecap="square"/>
    </g>
    <g fill="rgb(245,245,245)" text-rendering="geometricPrecision" shape-rendering="geometricPrecision" transform="matrix(2,0,0,2,562,-932)" stroke="rgb(245,245,245)">
      <rect x="-242.8817" y="526.8245" clip-path="url(#clipPath2)" width="511" rx="4" ry="4" height="255.1809" stroke="none"/>
      <rect x="-242.8817" y="526.8245" clip-path="url(#clipPath2)" fill="rgb(235,235,235)" width="511" height="21.4609" stroke="none"/>
    </g>
    <g font-size="15px" stroke-linecap="butt" transform="matrix(2,0,0,2,562,-932)" text-rendering="geometricPrecision" font-family="sans-serif" shape-rendering="geometricPrecision" stroke-miterlimit="1.45">
      <text x="165.1393" xml:space="preserve" y="542.7479" clip-path="url(#clipPath2)" stroke="none">Experiment 2</text>
      <rect x="-242.8817" y="526.8245" clip-path="url(#clipPath2)" fill="none" width="511" stroke-dasharray="6,2" rx="4" ry="4" height="255.1809"/>
    </g>
    <g fill="rgb(230,226,226)" text-rendering="geometricPrecision" shape-rendering="geometricPrecision" transform="matrix(2,0,0,2,562,-932)" stroke="rgb(230,226,226)">
      <rect x="-227.8817" width="481" height="203.72" y="563.2854" clip-path="url(#clipPath2)" stroke="none"/>
    </g>
    <g text-rendering="geometricPrecision" stroke-miterlimit="1.45" shape-rendering="geometricPrecision" transform="matrix(2,0,0,2,562,-932)" stroke-linecap="butt">
      <rect fill="none" x="-227.8817" width="481" height="203.72" y="563.2854" clip-path="url(#clipPath2)"/>
    </g>
    <g fill="rgb(255,102,0)" text-rendering="geometricPrecision" shape-rendering="geometricPrecision" transform="matrix(2,0,0,2,562,-932)" stroke="rgb(255,102,0)">
      <circle r="15" clip-path="url(#clipPath2)" cx="-136.2232" cy="589.6454" stroke="none"/>
    </g>
    <g text-rendering="geometricPrecision" stroke-miterlimit="1.45" shape-rendering="geometricPrecision" transform="matrix(2,0,0,2,562,-932)" stroke-linecap="butt">
      <circle fill="none" r="15" clip-path="url(#clipPath2)" cx="-136.2232" cy="589.6454"/>
    </g>
    <g fill="rgb(51,102,255)" text-rendering="geometricPrecision" shape-rendering="geometricPrecision" transform="matrix(2,0,0,2,562,-932)" stroke="rgb(51,102,255)">
      <circle r="15" clip-path="url(#clipPath2)" cx="-15.2232" cy="730.1454" stroke="none"/>
    </g>
    <g text-rendering="geometricPrecision" stroke-miterlimit="1.45" shape-rendering="geometricPrecision" transform="matrix(2,0,0,2,562,-932)" stroke-linecap="butt">
      <circle fill="none" r="15" clip-path="url(#clipPath2)" cx="-15.2232" cy="730.1454"/>
    </g>
    <g fill="rgb(51,102,255)" text-rendering="geometricPrecision" shape-rendering="geometricPrecision" transform="matrix(2,0,0,2,562,-932)" stroke="rgb(51,102,255)">
      <circle r="15" clip-path="url(#clipPath2)" cx="-196.2232" cy="649.6454" stroke="none"/>
    </g>
    <g text-rendering="geometricPrecision" stroke-miterlimit="1.45" shape-rendering="geometricPrecision" transform="matrix(2,0,0,2,562,-932)" stroke-linecap="butt">
      <circle fill="none" r="15" clip-path="url(#clipPath2)" cx="-196.2232" cy="649.6454"/>
    </g>
    <g fill="rgb(255,102,0)" text-rendering="geometricPrecision" shape-rendering="geometricPrecision" transform="matrix(2,0,0,2,562,-932)" stroke="rgb(255,102,0)">
      <circle r="15" clip-path="url(#clipPath2)" cx="-155.2232" cy="726.1454" stroke="none"/>
    </g>
    <g text-rendering="geometricPrecision" stroke-miterlimit="1.45" shape-rendering="geometricPrecision" transform="matrix(2,0,0,2,562,-932)" stroke-linecap="butt">
      <circle fill="none" r="15" clip-path="url(#clipPath2)" cx="-155.2232" cy="726.1454"/>
    </g>
    <g fill="rgb(255,102,0)" text-rendering="geometricPrecision" shape-rendering="geometricPrecision" transform="matrix(2,0,0,2,562,-932)" stroke="rgb(255,102,0)">
      <circle r="15" clip-path="url(#clipPath2)" cx="-75.2232" cy="685.1454" stroke="none"/>
    </g>
    <g text-rendering="geometricPrecision" stroke-miterlimit="1.45" shape-rendering="geometricPrecision" transform="matrix(2,0,0,2,562,-932)" stroke-linecap="butt">
      <circle fill="none" r="15" clip-path="url(#clipPath2)" cx="-75.2232" cy="685.1454"/>
    </g>
    <g fill="rgb(51,102,255)" text-rendering="geometricPrecision" shape-rendering="geometricPrecision" transform="matrix(2,0,0,2,562,-932)" stroke="rgb(51,102,255)">
      <circle r="15" clip-path="url(#clipPath2)" cx="-113.2232" cy="636.1454" stroke="none"/>
    </g>
    <g text-rendering="geometricPrecision" stroke-miterlimit="1.45" shape-rendering="geometricPrecision" transform="matrix(2,0,0,2,562,-932)" stroke-linecap="butt">
      <circle fill="none" r="15" clip-path="url(#clipPath2)" cx="-113.2232" cy="636.1454"/>
    </g>
    <g fill="rgb(255,102,0)" text-rendering="geometricPrecision" shape-rendering="geometricPrecision" transform="matrix(2,0,0,2,562,-932)" stroke="rgb(255,102,0)">
      <circle r="15" clip-path="url(#clipPath2)" cx="112.5768" cy="589.6454" stroke="none"/>
    </g>
    <g text-rendering="geometricPrecision" stroke-miterlimit="1.45" shape-rendering="geometricPrecision" transform="matrix(2,0,0,2,562,-932)" stroke-linecap="butt">
      <circle fill="none" r="15" clip-path="url(#clipPath2)" cx="112.5768" cy="589.6454"/>
    </g>
    <g fill="rgb(51,102,255)" text-rendering="geometricPrecision" shape-rendering="geometricPrecision" transform="matrix(2,0,0,2,562,-932)" stroke="rgb(51,102,255)">
      <circle r="15" clip-path="url(#clipPath2)" cx="229.7768" cy="730.1454" stroke="none"/>
    </g>
    <g text-rendering="geometricPrecision" stroke-miterlimit="1.45" shape-rendering="geometricPrecision" transform="matrix(2,0,0,2,562,-932)" stroke-linecap="butt">
      <circle fill="none" r="15" clip-path="url(#clipPath2)" cx="229.7768" cy="730.1454"/>
    </g>
    <g fill="rgb(51,102,255)" text-rendering="geometricPrecision" shape-rendering="geometricPrecision" transform="matrix(2,0,0,2,562,-932)" stroke="rgb(51,102,255)">
      <circle r="15" clip-path="url(#clipPath2)" cx="52.5768" cy="649.6454" stroke="none"/>
    </g>
    <g text-rendering="geometricPrecision" stroke-miterlimit="1.45" shape-rendering="geometricPrecision" transform="matrix(2,0,0,2,562,-932)" stroke-linecap="butt">
      <circle fill="none" r="15" clip-path="url(#clipPath2)" cx="52.5768" cy="649.6454"/>
    </g>
    <g fill="rgb(255,102,0)" text-rendering="geometricPrecision" shape-rendering="geometricPrecision" transform="matrix(2,0,0,2,562,-932)" stroke="rgb(255,102,0)">
      <circle r="15" clip-path="url(#clipPath2)" cx="93.5768" cy="726.1454" stroke="none"/>
    </g>
    <g text-rendering="geometricPrecision" stroke-miterlimit="1.45" shape-rendering="geometricPrecision" transform="matrix(2,0,0,2,562,-932)" stroke-linecap="butt">
      <circle fill="none" r="15" clip-path="url(#clipPath2)" cx="93.5768" cy="726.1454"/>
    </g>
    <g fill="rgb(255,102,0)" text-rendering="geometricPrecision" shape-rendering="geometricPrecision" transform="matrix(2,0,0,2,562,-932)" stroke="rgb(255,102,0)">
      <circle r="15" clip-path="url(#clipPath2)" cx="173.5768" cy="685.1454" stroke="none"/>
    </g>
    <g text-rendering="geometricPrecision" stroke-miterlimit="1.45" shape-rendering="geometricPrecision" transform="matrix(2,0,0,2,562,-932)" stroke-linecap="butt">
      <circle fill="none" r="15" clip-path="url(#clipPath2)" cx="173.5768" cy="685.1454"/>
    </g>
    <g fill="rgb(51,102,255)" text-rendering="geometricPrecision" shape-rendering="geometricPrecision" transform="matrix(2,0,0,2,562,-932)" stroke="rgb(51,102,255)">
      <circle r="15" clip-path="url(#clipPath2)" cx="135.5768" cy="636.1454" stroke="none"/>
    </g>
    <g text-rendering="geometricPrecision" stroke-miterlimit="1.45" shape-rendering="geometricPrecision" transform="matrix(2,0,0,2,562,-932)" stroke-linecap="butt">
      <circle fill="none" r="15" clip-path="url(#clipPath2)" cx="135.5768" cy="636.1454"/>
      <path fill="none" d="M-30.217 729.717 L-132.2325 726.8023" clip-path="url(#clipPath2)"/>
      <path d="M-140.2293 726.5739 L-128.377 731.9145 L-131.233 726.8309 L-128.0914 721.9186 Z" clip-path="url(#clipPath2)" stroke="none"/>
      <path fill="none" d="M-181.8298 653.8683 L-97.2929 678.6704" clip-path="url(#clipPath2)"/>
      <path d="M-89.6165 680.9226 L-99.7235 672.7465 L-98.2525 678.3889 L-102.5388 682.3421 Z" clip-path="url(#clipPath2)" stroke="none"/>
      <path fill="none" d="M-119.8735 622.7003 L-126.026 610.2614" clip-path="url(#clipPath2)"/>
      <path d="M-129.5728 603.0906 L-128.7343 616.0635 L-125.5827 611.1578 L-119.7709 611.63 Z" clip-path="url(#clipPath2)" stroke="none"/>
      <path fill="none" d="M225.6817 715.7033 L222.9472 706.0595 L213.8832 683.8374 L202.5848 663.4791 L189.052 644.9847 L173.2848 628.3541 L155.2832 613.5874 L135.0472 600.6845 L128.0697 597.2567" stroke-width="2" clip-path="url(#clipPath2)"/>
      <path d="M125.5894 602.3054 L130.55 592.2081 Z" stroke-width="2" clip-path="url(#clipPath2)" stroke="none"/>
      <path fill="none" stroke-miterlimit="10" d="M125.5894 602.3054 L130.55 592.2081 Z" clip-path="url(#clipPath2)" stroke-linecap="square"/>
      <path fill="none" d="M60.4573 636.8423 L64.0068 631.0754 L77.8168 614.8854 L94.0068 601.0754 L97.8576 598.7053" stroke-width="2" clip-path="url(#clipPath2)"/>
      <path d="M94.9091 593.9149 L100.806 603.4956 Z" stroke-width="2" clip-path="url(#clipPath2)" stroke="none"/>
      <path fill="none" stroke-miterlimit="10" d="M94.9091 593.9149 L100.806 603.4956 Z" clip-path="url(#clipPath2)" stroke-linecap="square"/>
      <path fill="none" d="M53.9443 664.5395 L55.4396 672.7296 L58.7178 683.2819 L63.2271 693.1744 L68.9678 702.4069 L75.9396 710.9796 L80.3122 715.1976" stroke-width="2" clip-path="url(#clipPath2)"/>
      <path d="M84.2174 711.1492 L76.4071 719.2461 Z" stroke-width="2" clip-path="url(#clipPath2)" stroke="none"/>
      <path fill="none" stroke-miterlimit="10" d="M84.2174 711.1492 L76.4071 719.2461 Z" clip-path="url(#clipPath2)" stroke-linecap="square"/>
      <path fill="none" d="M218.3418 720.4103 L202.3543 706.7994 L187.3747 695.5278" stroke-width="2" clip-path="url(#clipPath2)"/>
      <path d="M183.9926 700.0225 L190.7568 691.0331 Z" stroke-width="2" clip-path="url(#clipPath2)" stroke="none"/>
      <path fill="none" stroke-miterlimit="10" d="M183.9926 700.0225 L190.7568 691.0331 Z" clip-path="url(#clipPath2)" stroke-linecap="square"/>
      <path fill="none" d="M146.374 646.5849 L146.8358 647.0314 L156.9221 658.8267 L164.9113 670.2136 L164.9607 670.3005" stroke-width="2" clip-path="url(#clipPath2)"/>
      <path d="M169.6413 667.1808 L160.2802 673.4203 Z" stroke-width="2" clip-path="url(#clipPath2)" stroke="none"/>
      <path fill="none" stroke-miterlimit="10" d="M169.6413 667.1808 L160.2802 673.4203 Z" clip-path="url(#clipPath2)" stroke-linecap="square"/>
      <path fill="none" d="M126.6974 648.2169 L120.5726 656.5435 L108.5712 678.3428 L99.5726 701.5435 L97.6579 709.4" stroke-width="2" clip-path="url(#clipPath2)"/>
      <path d="M103.1229 710.7319 L92.1928 708.0682 Z" stroke-width="2" clip-path="url(#clipPath2)" stroke="none"/>
      <path fill="none" stroke-miterlimit="10" d="M103.1229 710.7319 L92.1928 708.0682 Z" clip-path="url(#clipPath2)" stroke-linecap="square"/>
    </g>
    <g fill="rgb(245,245,245)" text-rendering="geometricPrecision" shape-rendering="geometricPrecision" transform="matrix(2,0,0,2,562,-932)" stroke="rgb(245,245,245)">
      <rect x="-227.8817" y="552.6845" clip-path="url(#clipPath2)" width="511" rx="4" ry="4" height="255.1809" stroke="none"/>
      <rect x="-227.8817" y="552.6845" clip-path="url(#clipPath2)" fill="rgb(235,235,235)" width="511" height="21.4609" stroke="none"/>
    </g>
    <g font-size="15px" stroke-linecap="butt" transform="matrix(2,0,0,2,562,-932)" text-rendering="geometricPrecision" font-family="sans-serif" shape-rendering="geometricPrecision" stroke-miterlimit="1.45">
      <text x="180.1393" xml:space="preserve" y="568.6078" clip-path="url(#clipPath2)" stroke="none">Experiment 1</text>
      <rect x="-227.8817" y="552.6845" clip-path="url(#clipPath2)" fill="none" width="511" stroke-dasharray="6,2" rx="4" ry="4" height="255.1809"/>
    </g>
    <g fill="rgb(230,226,226)" text-rendering="geometricPrecision" shape-rendering="geometricPrecision" transform="matrix(2,0,0,2,562,-932)" stroke="rgb(230,226,226)">
      <rect x="-212.8817" width="481" height="203.72" y="589.1454" clip-path="url(#clipPath2)" stroke="none"/>
    </g>
    <g text-rendering="geometricPrecision" stroke-miterlimit="1.45" shape-rendering="geometricPrecision" transform="matrix(2,0,0,2,562,-932)" stroke-linecap="butt">
      <rect fill="none" x="-212.8817" width="481" height="203.72" y="589.1454" clip-path="url(#clipPath2)"/>
    </g>
    <g fill="rgb(255,102,0)" text-rendering="geometricPrecision" shape-rendering="geometricPrecision" transform="matrix(2,0,0,2,562,-932)" stroke="rgb(255,102,0)">
      <circle r="15" clip-path="url(#clipPath2)" cx="-121.2232" cy="615.5054" stroke="none"/>
    </g>
    <g text-rendering="geometricPrecision" stroke-miterlimit="1.45" shape-rendering="geometricPrecision" transform="matrix(2,0,0,2,562,-932)" stroke-linecap="butt">
      <circle fill="none" r="15" clip-path="url(#clipPath2)" cx="-121.2232" cy="615.5054"/>
    </g>
    <g fill="rgb(51,102,255)" text-rendering="geometricPrecision" shape-rendering="geometricPrecision" transform="matrix(2,0,0,2,562,-932)" stroke="rgb(51,102,255)">
      <circle r="15" clip-path="url(#clipPath2)" cx="-0.2232" cy="756.0054" stroke="none"/>
    </g>
    <g text-rendering="geometricPrecision" stroke-miterlimit="1.45" shape-rendering="geometricPrecision" transform="matrix(2,0,0,2,562,-932)" stroke-linecap="butt">
      <circle fill="none" r="15" clip-path="url(#clipPath2)" cx="-0.2232" cy="756.0054"/>
    </g>
    <g fill="rgb(51,102,255)" text-rendering="geometricPrecision" shape-rendering="geometricPrecision" transform="matrix(2,0,0,2,562,-932)" stroke="rgb(51,102,255)">
      <circle r="15" clip-path="url(#clipPath2)" cx="-181.2232" cy="675.5054" stroke="none"/>
    </g>
    <g text-rendering="geometricPrecision" stroke-miterlimit="1.45" shape-rendering="geometricPrecision" transform="matrix(2,0,0,2,562,-932)" stroke-linecap="butt">
      <circle fill="none" r="15" clip-path="url(#clipPath2)" cx="-181.2232" cy="675.5054"/>
    </g>
    <g fill="rgb(255,102,0)" text-rendering="geometricPrecision" shape-rendering="geometricPrecision" transform="matrix(2,0,0,2,562,-932)" stroke="rgb(255,102,0)">
      <circle r="15" clip-path="url(#clipPath2)" cx="-140.2232" cy="752.0054" stroke="none"/>
    </g>
    <g text-rendering="geometricPrecision" stroke-miterlimit="1.45" shape-rendering="geometricPrecision" transform="matrix(2,0,0,2,562,-932)" stroke-linecap="butt">
      <circle fill="none" r="15" clip-path="url(#clipPath2)" cx="-140.2232" cy="752.0054"/>
    </g>
    <g fill="rgb(255,102,0)" text-rendering="geometricPrecision" shape-rendering="geometricPrecision" transform="matrix(2,0,0,2,562,-932)" stroke="rgb(255,102,0)">
      <circle r="15" clip-path="url(#clipPath2)" cx="-60.2232" cy="711.0054" stroke="none"/>
    </g>
    <g text-rendering="geometricPrecision" stroke-miterlimit="1.45" shape-rendering="geometricPrecision" transform="matrix(2,0,0,2,562,-932)" stroke-linecap="butt">
      <circle fill="none" r="15" clip-path="url(#clipPath2)" cx="-60.2232" cy="711.0054"/>
    </g>
    <g fill="rgb(51,102,255)" text-rendering="geometricPrecision" shape-rendering="geometricPrecision" transform="matrix(2,0,0,2,562,-932)" stroke="rgb(51,102,255)">
      <circle r="15" clip-path="url(#clipPath2)" cx="-98.2232" cy="662.0054" stroke="none"/>
    </g>
    <g text-rendering="geometricPrecision" stroke-miterlimit="1.45" shape-rendering="geometricPrecision" transform="matrix(2,0,0,2,562,-932)" stroke-linecap="butt">
      <circle fill="none" r="15" clip-path="url(#clipPath2)" cx="-98.2232" cy="662.0054"/>
    </g>
    <g fill="rgb(255,102,0)" text-rendering="geometricPrecision" shape-rendering="geometricPrecision" transform="matrix(2,0,0,2,562,-932)" stroke="rgb(255,102,0)">
      <circle r="15" clip-path="url(#clipPath2)" cx="127.5768" cy="615.5054" stroke="none"/>
    </g>
    <g text-rendering="geometricPrecision" stroke-miterlimit="1.45" shape-rendering="geometricPrecision" transform="matrix(2,0,0,2,562,-932)" stroke-linecap="butt">
      <circle fill="none" r="15" clip-path="url(#clipPath2)" cx="127.5768" cy="615.5054"/>
    </g>
    <g fill="rgb(51,102,255)" text-rendering="geometricPrecision" shape-rendering="geometricPrecision" transform="matrix(2,0,0,2,562,-932)" stroke="rgb(51,102,255)">
      <circle r="15" clip-path="url(#clipPath2)" cx="244.7768" cy="756.0054" stroke="none"/>
    </g>
    <g text-rendering="geometricPrecision" stroke-miterlimit="1.45" shape-rendering="geometricPrecision" transform="matrix(2,0,0,2,562,-932)" stroke-linecap="butt">
      <circle fill="none" r="15" clip-path="url(#clipPath2)" cx="244.7768" cy="756.0054"/>
    </g>
    <g fill="rgb(51,102,255)" text-rendering="geometricPrecision" shape-rendering="geometricPrecision" transform="matrix(2,0,0,2,562,-932)" stroke="rgb(51,102,255)">
      <circle r="15" clip-path="url(#clipPath2)" cx="67.5768" cy="675.5054" stroke="none"/>
    </g>
    <g text-rendering="geometricPrecision" stroke-miterlimit="1.45" shape-rendering="geometricPrecision" transform="matrix(2,0,0,2,562,-932)" stroke-linecap="butt">
      <circle fill="none" r="15" clip-path="url(#clipPath2)" cx="67.5768" cy="675.5054"/>
    </g>
    <g fill="rgb(255,102,0)" text-rendering="geometricPrecision" shape-rendering="geometricPrecision" transform="matrix(2,0,0,2,562,-932)" stroke="rgb(255,102,0)">
      <circle r="15" clip-path="url(#clipPath2)" cx="108.5768" cy="752.0054" stroke="none"/>
    </g>
    <g text-rendering="geometricPrecision" stroke-miterlimit="1.45" shape-rendering="geometricPrecision" transform="matrix(2,0,0,2,562,-932)" stroke-linecap="butt">
      <circle fill="none" r="15" clip-path="url(#clipPath2)" cx="108.5768" cy="752.0054"/>
    </g>
    <g fill="rgb(255,102,0)" text-rendering="geometricPrecision" shape-rendering="geometricPrecision" transform="matrix(2,0,0,2,562,-932)" stroke="rgb(255,102,0)">
      <circle r="15" clip-path="url(#clipPath2)" cx="188.5768" cy="711.0054" stroke="none"/>
    </g>
    <g text-rendering="geometricPrecision" stroke-miterlimit="1.45" shape-rendering="geometricPrecision" transform="matrix(2,0,0,2,562,-932)" stroke-linecap="butt">
      <circle fill="none" r="15" clip-path="url(#clipPath2)" cx="188.5768" cy="711.0054"/>
    </g>
    <g fill="rgb(51,102,255)" text-rendering="geometricPrecision" shape-rendering="geometricPrecision" transform="matrix(2,0,0,2,562,-932)" stroke="rgb(51,102,255)">
      <circle r="15" clip-path="url(#clipPath2)" cx="150.5768" cy="662.0054" stroke="none"/>
    </g>
    <g text-rendering="geometricPrecision" stroke-miterlimit="1.45" shape-rendering="geometricPrecision" transform="matrix(2,0,0,2,562,-932)" stroke-linecap="butt">
      <circle fill="none" r="15" clip-path="url(#clipPath2)" cx="150.5768" cy="662.0054"/>
      <path fill="none" d="M-15.217 755.577 L-117.2325 752.6623" clip-path="url(#clipPath2)"/>
      <path d="M-125.2293 752.4338 L-113.377 757.7745 L-116.2329 752.6909 L-113.0914 747.7786 Z" clip-path="url(#clipPath2)" stroke="none"/>
      <path fill="none" d="M-166.8298 679.7283 L-82.2929 704.5305" clip-path="url(#clipPath2)"/>
      <path d="M-74.6165 706.7826 L-84.7235 698.6066 L-83.2525 704.249 L-87.5387 708.2021 Z" clip-path="url(#clipPath2)" stroke="none"/>
      <path fill="none" d="M-104.8735 648.5602 L-111.026 636.1214" clip-path="url(#clipPath2)"/>
      <path d="M-114.5728 628.9506 L-113.7343 641.9235 L-110.5827 637.0178 L-104.7709 637.49 Z" clip-path="url(#clipPath2)" stroke="none"/>
      <path fill="none" d="M240.6817 741.5633 L237.9472 731.9195 L228.8832 709.6974 L217.5848 689.3391 L204.052 670.8447 L188.2848 654.2141 L170.2832 639.4474 L150.0472 626.5445 L143.0698 623.1167" stroke-width="2" clip-path="url(#clipPath2)"/>
      <path d="M140.5895 628.1653 L145.5501 618.0681 Z" stroke-width="2" clip-path="url(#clipPath2)" stroke="none"/>
      <path fill="none" stroke-miterlimit="10" d="M140.5895 628.1653 L145.5501 618.0681 Z" clip-path="url(#clipPath2)" stroke-linecap="square"/>
      <path fill="none" d="M75.4573 662.7023 L79.0068 656.9354 L92.8168 640.7454 L109.0068 626.9354 L112.8576 624.5652" stroke-width="2" clip-path="url(#clipPath2)"/>
      <path d="M109.9091 619.7749 L115.806 629.3556 Z" stroke-width="2" clip-path="url(#clipPath2)" stroke="none"/>
      <path fill="none" stroke-miterlimit="10" d="M109.9091 619.7749 L115.806 629.3556 Z" clip-path="url(#clipPath2)" stroke-linecap="square"/>
      <path fill="none" d="M68.9443 690.3995 L70.4396 698.5896 L73.7178 709.1419 L78.2271 719.0344 L83.9678 728.2669 L90.9396 736.8396 L95.3122 741.0576" stroke-width="2" clip-path="url(#clipPath2)"/>
      <path d="M99.2174 737.0092 L91.4071 745.1061 Z" stroke-width="2" clip-path="url(#clipPath2)" stroke="none"/>
      <path fill="none" stroke-miterlimit="10" d="M99.2174 737.0092 L91.4071 745.1061 Z" clip-path="url(#clipPath2)" stroke-linecap="square"/>
      <path fill="none" d="M233.3418 746.2703 L217.3543 732.6594 L202.3747 721.3878" stroke-width="2" clip-path="url(#clipPath2)"/>
      <path d="M198.9926 725.8825 L205.7568 716.8931 Z" stroke-width="2" clip-path="url(#clipPath2)" stroke="none"/>
      <path fill="none" stroke-miterlimit="10" d="M198.9926 725.8825 L205.7568 716.8931 Z" clip-path="url(#clipPath2)" stroke-linecap="square"/>
      <path fill="none" d="M161.374 672.4449 L161.8358 672.8914 L171.9221 684.6866 L179.9113 696.0736 L179.9607 696.1605" stroke-width="2" clip-path="url(#clipPath2)"/>
      <path d="M184.6413 693.0408 L175.2802 699.2803 Z" stroke-width="2" clip-path="url(#clipPath2)" stroke="none"/>
      <path fill="none" stroke-miterlimit="10" d="M184.6413 693.0408 L175.2802 699.2803 Z" clip-path="url(#clipPath2)" stroke-linecap="square"/>
      <path fill="none" d="M141.6974 674.0769 L135.5726 682.4034 L123.5712 704.2028 L114.5726 727.4034 L112.6579 735.26" stroke-width="2" clip-path="url(#clipPath2)"/>
      <path d="M118.1229 736.5919 L107.1928 733.9282 Z" stroke-width="2" clip-path="url(#clipPath2)" stroke="none"/>
      <path fill="none" stroke-miterlimit="10" d="M118.1229 736.5919 L107.1928 733.9282 Z" clip-path="url(#clipPath2)" stroke-linecap="square"/>
    </g>
  </g>
</svg>
